<?xml version="1.0" encoding="utf-8"?>
<!-- Generator: Adobe Illustrator 17.0.0, SVG Export Plug-In . SVG Version: 6.00 Build 0)  -->
<!DOCTYPE svg PUBLIC "-//W3C//DTD SVG 1.1//EN" "http://www.w3.org/Graphics/SVG/1.1/DTD/svg11.dtd">
<svg version="1.1" id="Layer_1" xmlns="http://www.w3.org/2000/svg" xmlns:xlink="http://www.w3.org/1999/xlink" x="0px" y="0px"
	 width="20px" height="18.182px" viewBox="0 0 20 18.182" enable-background="new 0 0 20 18.182" xml:space="preserve">
<path fill="#7F98FF" d="M16.818,0c1.255,0,2.273,1.018,2.273,2.273v0.455C19.593,2.727,20,3.134,20,3.636v3.636
	c0,0.502-0.407,0.909-0.909,0.909h-4.545c-0.502,0-0.909-0.407-0.909-0.909V3.636c0-0.502,0.407-0.909,0.909-0.909V2.273
	C14.545,1.018,15.563,0,16.818,0 M9.091,10L1.818,5.455v1.818l7.273,4.545l3.8-2.373C13.355,9.791,13.927,10,14.545,10h3.636v6.364
	c0,1.004-0.814,1.818-1.818,1.818H1.818C0.814,18.182,0,17.368,0,16.364V5.455C0,4.45,0.814,3.636,1.818,3.636h10v3.636
	c0,0.327,0.055,0.636,0.164,0.909L9.091,10 M16.818,0.909c-0.753,0-1.364,0.611-1.364,1.364v0.455h2.727V2.273
	C18.182,1.52,17.571,0.909,16.818,0.909z"/>
</svg>
