<?xml version="1.0" encoding="utf-8"?>
<!-- Generator: Adobe Illustrator 17.0.0, SVG Export Plug-In . SVG Version: 6.00 Build 0)  -->
<!DOCTYPE svg PUBLIC "-//W3C//DTD SVG 1.1//EN" "http://www.w3.org/Graphics/SVG/1.1/DTD/svg11.dtd">
<svg version="1.1" id="Layer_1" xmlns="http://www.w3.org/2000/svg" xmlns:xlink="http://www.w3.org/1999/xlink" x="0px" y="0px"
	 width="75.484px" height="44.918px" viewBox="0 0 75.484 44.918" enable-background="new 0 0 75.484 44.918" xml:space="preserve">
<g>
	<g>
		<g>
			<path opacity="0.2" fill="#B0C9D6" d="M18.057,44.815c-1.381,0-2.5-1.119-2.5-2.5V2.5c0-1.381,1.119-2.5,2.5-2.5
				s2.5,1.119,2.5,2.5v39.815C20.557,43.696,19.438,44.815,18.057,44.815z"/>
			<path opacity="0.2" fill="#B0C9D6" d="M30.294,44.918c-1.381,0-2.5-1.119-2.5-2.5V2.603c0-1.381,1.119-2.5,2.5-2.5
				s2.5,1.119,2.5,2.5v39.815C32.794,43.799,31.675,44.918,30.294,44.918z"/>
			<path opacity="0.2" fill="#B0C9D6" d="M42.533,44.918c-1.381,0-2.5-1.119-2.5-2.5V2.603c0-1.381,1.119-2.5,2.5-2.5
				s2.5,1.119,2.5,2.5v39.815C45.033,43.799,43.914,44.918,42.533,44.918z"/>
			<path opacity="0.2" fill="#B0C9D6" d="M54.769,44.918c-1.381,0-2.5-1.119-2.5-2.5V2.603c0-1.381,1.119-2.5,2.5-2.5
				s2.5,1.119,2.5,2.5v39.815C57.269,43.799,56.15,44.918,54.769,44.918z"/>
			<path opacity="0.2" fill="#B0C9D6" d="M67.007,44.918c-1.381,0-2.5-1.119-2.5-2.5V2.603c0-1.381,1.119-2.5,2.5-2.5
				s2.5,1.119,2.5,2.5v39.815C69.507,43.799,68.388,44.918,67.007,44.918z"/>
			<path opacity="0.2" fill="#B0C9D6" d="M5.82,44.815c-1.381,0-2.5-1.119-2.5-2.5V2.5c0-1.381,1.119-2.5,2.5-2.5s2.5,1.119,2.5,2.5
				v39.815C8.32,43.696,7.201,44.815,5.82,44.815z"/>
		</g>
	</g>
	<g>
		<linearGradient id="SVGID_1_" gradientUnits="userSpaceOnUse" x1="43.6107" y1="14.0798" x2="75.0197" y2="14.0798">
			<stop  offset="0" style="stop-color:#96E3C3"/>
			<stop  offset="0.5" style="stop-color:#45B8C5"/>
			<stop  offset="1" style="stop-color:#7F98FF"/>
		</linearGradient>
		<path fill="url(#SVGID_1_)" d="M49.896,2.827L49.896,2.827l-0.213-0.198c-0.69-0.554-1.527-0.867-2.417-0.835
			c-1.229,0.044-2.306,0.733-3.016,1.786l-0.017-0.012l-0.621,0.953L67.07,26.368l7.95-0.143L49.896,2.827z"/>
	</g>
	<g>
		<linearGradient id="SVGID_2_" gradientUnits="userSpaceOnUse" x1="23.8534" y1="21.3249" x2="31.418" y2="28.3292">
			<stop  offset="0" style="stop-color:#EDBE72"/>
			<stop  offset="1" style="stop-color:#C6D880"/>
		</linearGradient>
		<path fill="url(#SVGID_2_)" d="M31.219,30.524c1.211-0.043,2.276-0.713,2.985-1.74l0.003,0.001l0.647-0.992L20.79,14.695
			c-0.692-0.561-1.533-0.877-2.43-0.845c-1.212,0.043-2.278,0.715-2.987,1.746l-0.651,0.996l13.91,12.952
			C29.354,30.189,30.254,30.559,31.219,30.524z"/>
	</g>
	<g>
		<linearGradient id="SVGID_3_" gradientUnits="userSpaceOnUse" x1="29.0154" y1="29.6545" x2="49.6081" y2="2.4778">
			<stop  offset="0" style="stop-color:#C6D880"/>
			<stop  offset="0.9731" style="stop-color:#96E3C3"/>
		</linearGradient>
		<path fill="url(#SVGID_3_)" d="M51.488,4.309l-1.592-1.482l-0.001,0.001l-0.213-0.198c-0.69-0.554-1.527-0.867-2.417-0.835
			c-1.229,0.044-2.306,0.733-3.016,1.786L35.6,16.841l-3.7,5.66l-1.022,1.589c-1.267,1.85-1.928,2.743-3.54,2.8
			c-0.645,0.023-1.26-0.135-1.813-0.433c-0.294-0.152-0.57-0.343-0.823-0.572l2.288,2.13l1.591,1.483l0.002-0.001l0.212,0.198
			c0.69,0.554,1.527,0.867,2.417,0.835c1.229-0.044,2.306-0.733,3.016-1.787l5.353-8.196l6.995-10.725l1.023-1.589
			c1.268-1.85,1.928-2.743,3.541-2.801c0.645-0.023,1.26,0.135,1.813,0.434c0.294,0.152,0.57,0.343,0.823,0.572L51.488,4.309z"/>
	</g>
	<g>
		<linearGradient id="SVGID_4_" gradientUnits="userSpaceOnUse" x1="-4.013124e-005" y1="28.5379" x2="24.8709" y2="28.5379">
			<stop  offset="0" style="stop-color:#FC6972"/>
			<stop  offset="1" style="stop-color:#EDBE72"/>
		</linearGradient>
		<path fill="url(#SVGID_4_)" d="M22.584,16.365l-1.592-1.482l-0.001,0.001l-0.213-0.198c-0.691-0.555-1.526-0.867-2.417-0.835
			c-1.228,0.044-2.306,0.733-3.015,1.786L0.601,38.251l0,0l0,0l-0.124,0.19c-0.314,0.521-0.5,1.159-0.475,1.853
			c0.06,1.67,1.244,2.982,2.644,2.932c0.788-0.028,1.461-0.53,1.902-1.218l13.124-20.13l1.023-1.589
			c1.268-1.851,1.928-2.744,3.54-2.801c0.645-0.023,1.261,0.134,1.813,0.434c0.294,0.152,0.571,0.343,0.823,0.573L22.584,16.365z"/>
	</g>
	<g>
		<path fill="#7F98FF" d="M67.794,26.486c-0.55,0.02-0.813-0.374-0.584-0.874l3.377-7.402c0.228-0.5,0.631-0.515,0.894-0.032
			l3.896,7.143c0.263,0.483,0.029,0.894-0.521,0.914L67.794,26.486z"/>
	</g>
</g>
</svg>
