<?xml version="1.0" encoding="utf-8"?>
<!-- Generator: Adobe Illustrator 17.0.0, SVG Export Plug-In . SVG Version: 6.00 Build 0)  -->
<!DOCTYPE svg PUBLIC "-//W3C//DTD SVG 1.1//EN" "http://www.w3.org/Graphics/SVG/1.1/DTD/svg11.dtd">
<svg version="1.1" id="Layer_1" xmlns="http://www.w3.org/2000/svg" xmlns:xlink="http://www.w3.org/1999/xlink" x="0px" y="0px"
	 width="126.079px" height="22.663px" viewBox="0 0 126.079 22.663" enable-background="new 0 0 126.079 22.663"
	 xml:space="preserve">
<g>
	<g>
		<path fill="#7F98FF" d="M9.771,14.3l3.445-10.126c0.151-0.388,0.359-0.669,0.623-0.841c0.264-0.172,0.644-0.259,1.14-0.259h2.685
			c0.345,0,0.607,0.095,0.785,0.283c0.178,0.189,0.267,0.461,0.267,0.817c0,0.41-0.111,0.693-0.332,0.849
			c-0.221,0.156-0.628,0.234-1.221,0.234h-0.259l0.453,14.721h0.534c0.615,0,1.035,0.081,1.262,0.243
			c0.226,0.162,0.34,0.453,0.34,0.874c0,0.388-0.094,0.679-0.283,0.874c-0.189,0.194-0.472,0.291-0.849,0.291h-4.546
			c-0.647,0-1.078-0.083-1.294-0.251c-0.216-0.167-0.324-0.472-0.324-0.914c0-0.421,0.138-0.712,0.412-0.874
			c0.275-0.162,0.79-0.243,1.545-0.243h0.695L14.478,6.066l-3.171,9.301c-0.151,0.442-0.348,0.752-0.59,0.93
			c-0.243,0.178-0.601,0.267-1.076,0.267c-0.453,0-0.798-0.089-1.035-0.267c-0.237-0.178-0.431-0.488-0.582-0.93L4.772,6.066
			L4.481,19.978c0.237-0.021,0.599-0.032,1.084-0.032c0.625,0,1.07,0.089,1.335,0.267c0.264,0.178,0.396,0.472,0.396,0.882
			c0,0.442-0.108,0.747-0.324,0.914c-0.216,0.167-0.647,0.251-1.294,0.251H1.132c-0.378,0-0.661-0.097-0.849-0.291
			C0.094,21.774,0,21.482,0,21.094c0-0.421,0.113-0.712,0.34-0.874c0.227-0.162,0.647-0.243,1.262-0.243h0.518L2.588,5.257H2.329
			c-0.593,0-1.003-0.078-1.229-0.234C0.873,4.867,0.76,4.584,0.76,4.174c0-0.356,0.091-0.628,0.275-0.817
			c0.183-0.189,0.447-0.283,0.793-0.283h2.653c0.496,0,0.876,0.086,1.14,0.259c0.264,0.173,0.466,0.453,0.607,0.841L9.771,14.3z"/>
		<path fill="#7F98FF" d="M37.15,14.802c0,2.308-0.782,4.195-2.346,5.662c-1.564,1.467-3.602,2.2-6.115,2.2
			c-2.502,0-4.54-0.733-6.115-2.2c-1.575-1.467-2.362-3.354-2.362-5.662c0-2.308,0.787-4.192,2.362-5.654
			c1.574-1.461,3.613-2.192,6.115-2.192c2.502,0,4.537,0.733,6.107,2.2C36.366,10.623,37.15,12.505,37.15,14.802z M28.69,20.399
			c1.66,0,3.022-0.523,4.085-1.569c1.062-1.046,1.593-2.389,1.593-4.028c0-1.628-0.534-2.974-1.601-4.036
			c-1.068-1.062-2.427-1.593-4.077-1.593c-1.65,0-3.006,0.531-4.068,1.593c-1.062,1.062-1.593,2.408-1.593,4.036
			c0,1.629,0.531,2.968,1.593,4.02C25.684,19.873,27.04,20.399,28.69,20.399z"/>
		<path fill="#7F98FF" d="M41.624,19.978V9.609h-0.728c-0.529,0-0.911-0.091-1.148-0.275c-0.237-0.183-0.356-0.48-0.356-0.89
			c0-0.431,0.119-0.728,0.356-0.89c0.237-0.162,0.863-0.243,1.876-0.243h1.521c0.302,0,0.531,0.059,0.688,0.178
			c0.156,0.119,0.235,0.281,0.235,0.485v1.1c0.809-0.755,1.596-1.308,2.362-1.658c0.766-0.35,1.558-0.526,2.378-0.526
			c1.618,0,2.901,0.512,3.85,1.537c0.949,1.025,1.424,2.432,1.424,4.222v7.328h0.728c0.539,0,0.927,0.089,1.165,0.267
			c0.237,0.178,0.356,0.461,0.356,0.849c0,0.421-0.127,0.72-0.38,0.898c-0.254,0.178-0.698,0.267-1.335,0.267h-3.591
			c-0.69,0-1.132-0.081-1.326-0.243c-0.194-0.162-0.291-0.469-0.291-0.922c0-0.421,0.116-0.712,0.348-0.874
			c0.232-0.162,0.655-0.243,1.27-0.243h0.534v-6.729c0-1.272-0.28-2.238-0.841-2.896c-0.561-0.658-1.386-0.987-2.475-0.987
			c-1.111,0-2.09,0.375-2.936,1.124c-0.847,0.75-1.27,1.669-1.27,2.758v6.729c0.097,0,0.224-0.005,0.38-0.016
			c0.156-0.011,0.261-0.016,0.316-0.016c0.593,0,1,0.084,1.221,0.251c0.221,0.167,0.332,0.467,0.332,0.898
			c0,0.453-0.097,0.76-0.291,0.922c-0.194,0.162-0.669,0.243-1.424,0.243H40.75c-0.453,0-0.793-0.097-1.019-0.291
			c-0.226-0.194-0.34-0.485-0.34-0.874c0-0.421,0.132-0.712,0.396-0.874c0.264-0.162,0.763-0.243,1.496-0.243H41.624z"/>
		<path fill="#7F98FF" d="M67.468,19.978h5.193c0.421,0,0.731,0.089,0.93,0.267c0.199,0.178,0.299,0.461,0.299,0.849
			c0,0.442-0.095,0.747-0.283,0.914c-0.189,0.167-0.537,0.251-1.043,0.251H60.011c-0.431,0-0.755-0.097-0.971-0.291
			c-0.216-0.194-0.324-0.485-0.324-0.874c0-0.377,0.113-0.658,0.34-0.841c0.226-0.183,0.566-0.275,1.019-0.275h4.934V9.609h-3.155
			c-0.442,0-0.776-0.099-1.003-0.299c-0.227-0.199-0.34-0.488-0.34-0.865c0-0.377,0.105-0.66,0.316-0.849
			c0.21-0.189,0.531-0.283,0.962-0.283h4.74c0.302,0,0.534,0.059,0.696,0.178c0.162,0.119,0.243,0.281,0.243,0.485V19.978z
			 M64.443,2.653c0-1.154,0.108-1.885,0.324-2.192C64.982,0.154,65.441,0,66.142,0c0.669,0,1.111,0.127,1.327,0.38
			c0.215,0.254,0.324,0.855,0.324,1.804c0,0.938-0.103,1.515-0.307,1.731c-0.205,0.216-0.652,0.324-1.343,0.324
			c-0.701,0-1.159-0.105-1.375-0.315C64.551,3.713,64.443,3.289,64.443,2.653z"/>
		<path fill="#7F98FF" d="M85.621,8.218c0.528,0,0.914,0.092,1.157,0.275c0.243,0.183,0.364,0.475,0.364,0.873
			c0,0.378-0.113,0.661-0.34,0.849c-0.226,0.189-0.566,0.283-1.019,0.283h-6.551v5.403c0,1.758,0.229,2.915,0.687,3.47
			c0.458,0.556,1.243,0.833,2.354,0.833c0.981,0,2.157-0.286,3.527-0.857c1.369-0.572,2.216-0.857,2.54-0.857
			c0.291,0,0.55,0.116,0.776,0.348c0.226,0.232,0.34,0.499,0.34,0.801c0,0.356-0.135,0.663-0.404,0.922
			c-0.27,0.259-0.728,0.518-1.375,0.776c-1.068,0.421-2.028,0.728-2.879,0.922c-0.852,0.194-1.639,0.291-2.362,0.291
			c-1.251,0-2.305-0.2-3.163-0.598c-0.857-0.399-1.513-1.003-1.965-1.812c-0.216-0.367-0.37-0.809-0.461-1.327
			c-0.092-0.518-0.138-1.321-0.138-2.41v-0.502v-5.403H73.99c-0.453,0-0.782-0.089-0.987-0.267
			c-0.205-0.178-0.307-0.466-0.307-0.866c0-0.442,0.135-0.744,0.404-0.906c0.269-0.162,0.874-0.243,1.812-0.243h1.796V4.044
			c0-0.464,0.105-0.806,0.315-1.027c0.21-0.221,0.526-0.332,0.946-0.332c0.496,0,0.836,0.138,1.019,0.413
			c0.183,0.275,0.275,0.887,0.275,1.836v3.284H85.621z"/>
		<path fill="#7F98FF" d="M107.888,14.802c0,2.308-0.782,4.195-2.345,5.662c-1.564,1.467-3.602,2.2-6.115,2.2
			c-2.502,0-4.54-0.733-6.115-2.2c-1.575-1.467-2.362-3.354-2.362-5.662c0-2.308,0.787-4.192,2.362-5.654
			c1.574-1.461,3.613-2.192,6.115-2.192c2.502,0,4.538,0.733,6.107,2.2C107.104,10.623,107.888,12.505,107.888,14.802z
			 M99.428,20.399c1.661,0,3.022-0.523,4.085-1.569c1.062-1.046,1.593-2.389,1.593-4.028c0-1.628-0.534-2.974-1.601-4.036
			c-1.068-1.062-2.426-1.593-4.077-1.593c-1.65,0-3.006,0.531-4.068,1.593c-1.062,1.062-1.593,2.408-1.593,4.036
			c0,1.629,0.531,2.968,1.593,4.02C96.422,19.873,97.778,20.399,99.428,20.399z"/>
		<path fill="#7F98FF" d="M116.065,19.978h5.371c0.421,0,0.731,0.089,0.93,0.267c0.199,0.178,0.299,0.461,0.299,0.849
			c0,0.442-0.095,0.747-0.283,0.914c-0.189,0.167-0.537,0.251-1.043,0.251h-10.58c-0.431,0-0.758-0.1-0.979-0.299
			c-0.221-0.199-0.332-0.488-0.332-0.865c0-0.377,0.11-0.658,0.332-0.841c0.221-0.183,0.563-0.275,1.027-0.275h2.847V9.609h-1.925
			c-0.539,0-0.928-0.091-1.165-0.275c-0.237-0.183-0.356-0.48-0.356-0.89c0-0.377,0.105-0.66,0.315-0.849
			c0.21-0.189,0.536-0.283,0.979-0.283h3.672c0.302,0,0.526,0.054,0.671,0.162c0.146,0.108,0.218,0.275,0.218,0.502v2.75
			c1.025-1.283,2.095-2.238,3.211-2.863c1.116-0.625,2.31-0.938,3.583-0.938c0.971,0,1.75,0.192,2.338,0.574
			c0.588,0.383,0.882,0.887,0.882,1.513c0,0.388-0.149,0.739-0.445,1.051c-0.297,0.313-0.623,0.469-0.979,0.469
			c-0.259,0-0.682-0.164-1.27-0.493c-0.588-0.329-1.108-0.493-1.561-0.493c-0.841,0-1.728,0.299-2.661,0.898
			c-0.933,0.599-1.965,1.545-3.098,2.839V19.978z"/>
	</g>
</g>
</svg>
