<?xml version="1.0" encoding="utf-8"?>
<!-- Generator: Adobe Illustrator 17.0.0, SVG Export Plug-In . SVG Version: 6.00 Build 0)  -->
<!DOCTYPE svg PUBLIC "-//W3C//DTD SVG 1.1//EN" "http://www.w3.org/Graphics/SVG/1.1/DTD/svg11.dtd">
<svg version="1.1" id="Layer_1" xmlns="http://www.w3.org/2000/svg" xmlns:xlink="http://www.w3.org/1999/xlink" x="0px" y="0px"
	 width="10px" height="9px" viewBox="0 0 10 9" enable-background="new 0 0 10 9" xml:space="preserve">
<path fill="#7F98FF" d="M8,0H2v2h6 M8.5,4.5C8.224,4.5,8,4.276,8,4C8,3.724,8.224,3.5,8.5,3.5C8.776,3.5,9,3.724,9,4
	C9,4.276,8.776,4.5,8.5,4.5 M7,8H3V5.5h4 M8.5,2.5H1.501C0.672,2.5,0,3.172,0,4v2.999h2V9h6V6.999h2V4C10,3.172,9.328,2.5,8.5,2.5z"
	/>
</svg>
