<?xml version="1.0" encoding="utf-8"?>
<!-- Generator: Adobe Illustrator 17.0.0, SVG Export Plug-In . SVG Version: 6.00 Build 0)  -->
<!DOCTYPE svg PUBLIC "-//W3C//DTD SVG 1.1//EN" "http://www.w3.org/Graphics/SVG/1.1/DTD/svg11.dtd">
<svg version="1.1" id="Layer_1" xmlns="http://www.w3.org/2000/svg" xmlns:xlink="http://www.w3.org/1999/xlink" x="0px" y="0px"
	 width="10px" height="8.334px" viewBox="0 0 10 8.334" enable-background="new 0 0 10 8.334" xml:space="preserve">
<path fill="#7F98FF" d="M0.556,5h8.889C9.751,5,10,5.249,10,5.556v2.223c0,0.307-0.249,0.556-0.556,0.556H0.556
	C0.249,8.334,0,8.085,0,7.778V5.556C0,5.249,0.249,5,0.556,5 M3.334,7.223h0.555V6.111H3.334V7.223 M1.111,6.111v1.111h1.111V6.111
	H1.111 M8.889,1.628L8.111,2.411c-0.805-0.805-1.916-1.3-3.149-1.3c-1.228,0-2.339,0.495-3.144,1.3L1.039,1.628
	C2.044,0.622,3.434,0,4.961,0C6.494,0,7.883,0.622,8.889,1.628 M7.316,3.2L6.539,3.983C6.133,3.584,5.578,3.334,4.961,3.334
	c-0.617,0-1.172,0.25-1.572,0.649L2.611,3.2c0.6-0.605,1.433-0.978,2.35-0.978C5.878,2.223,6.711,2.595,7.316,3.2z"/>
</svg>
