<?xml version="1.0" encoding="utf-8"?>
<!-- Generator: Adobe Illustrator 17.0.0, SVG Export Plug-In . SVG Version: 6.00 Build 0)  -->
<!DOCTYPE svg PUBLIC "-//W3C//DTD SVG 1.1//EN" "http://www.w3.org/Graphics/SVG/1.1/DTD/svg11.dtd">
<svg version="1.1" id="Layer_1" xmlns="http://www.w3.org/2000/svg" xmlns:xlink="http://www.w3.org/1999/xlink" x="0px" y="0px"
	 width="10px" height="10px" viewBox="0 0 10 10" enable-background="new 0 0 10 10" xml:space="preserve">
<path fill="#7F98FF" d="M5.5,8H6c0.276,0,0.5,0.224,0.5,0.5H10v1H6.5C6.5,9.776,6.276,10,6,10H4c-0.276,0-0.5-0.224-0.5-0.5H0v-1
	h3.5C3.5,8.224,3.724,8,4,8h0.5V7H3C2.724,7,2.5,6.776,2.5,6.5v-6C2.5,0.224,2.724,0,3,0h4c0.276,0,0.5,0.224,0.5,0.5v6
	C7.5,6.776,7.276,7,7,7H5.5V8 M5.5,2H6V1H5.5V2 M3.5,1v1h1V1H3.5 M3.5,3v1h1V3H3.5 M3.5,5v1h1V5H3.5z"/>
</svg>
