<?xml version="1.0" encoding="utf-8"?>
<!-- Generator: Adobe Illustrator 17.0.0, SVG Export Plug-In . SVG Version: 6.00 Build 0)  -->
<!DOCTYPE svg PUBLIC "-//W3C//DTD SVG 1.1//EN" "http://www.w3.org/Graphics/SVG/1.1/DTD/svg11.dtd">
<svg version="1.1" id="Layer_1" xmlns="http://www.w3.org/2000/svg" xmlns:xlink="http://www.w3.org/1999/xlink" x="0px" y="0px"
	 width="10px" height="11.741px" viewBox="0 0 10 11.741" enable-background="new 0 0 10 11.741" xml:space="preserve">
<g>
	<g>
		<g>
			<path fill="#7F98FF" d="M9.744,9.577C9.435,9.451,9.179,9.251,9.198,8.866c0.019-0.383-0.274-0.638-0.274-0.638
				s0.255-0.839,0.017-1.534C8.704,6.001,7.919,4.887,7.317,4.047C6.716,3.209,7.226,2.241,6.679,1
				c-0.548-1.24-1.971-1.167-2.738-0.637C3.174,0.89,3.411,2.204,3.448,2.826c0.037,0.621,0.016,1.061-0.055,1.222
				c-0.072,0.161-0.566,0.75-0.895,1.241C2.171,5.781,1.934,6.804,1.695,7.224C1.459,7.643,1.623,8.027,1.623,8.027
				S1.459,8.082,1.33,8.357c-0.128,0.273-0.383,0.398-0.839,0.49C0.035,8.939,0.035,9.23,0.144,9.56
				c0.11,0.328,0.001,0.512-0.127,0.93c-0.127,0.419,0.511,0.548,1.132,0.619c0.62,0.073,1.314,0.475,1.899,0.548
				c0.582,0.073,0.766-0.401,0.766-0.401s0.657-0.146,1.35-0.163c0.694-0.019,1.35,0.144,1.35,0.144s0.128,0.294,0.366,0.42
				c0.238,0.128,0.748,0.146,1.077-0.2c0.329-0.346,1.205-0.783,1.697-1.059C10.146,10.125,10.055,9.705,9.744,9.577z M5.474,1.53
				c0.312,0,0.565,0.309,0.565,0.692c0,0.273-0.127,0.507-0.312,0.621C5.681,2.823,5.63,2.8,5.579,2.779
				c0.111-0.055,0.19-0.197,0.19-0.364c0-0.216-0.134-0.39-0.298-0.39c-0.164,0-0.297,0.177-0.297,0.39
				c0,0.081,0.018,0.158,0.052,0.221C5.128,2.596,5.039,2.559,4.968,2.534C4.93,2.44,4.908,2.334,4.908,2.222
				C4.908,1.839,5.161,1.53,5.474,1.53z M5.433,2.99c0.157,0.056,0.33,0.156,0.313,0.258c-0.02,0.101-0.101,0.101-0.313,0.231
				C5.221,3.607,4.762,3.892,4.615,3.91c-0.148,0.019-0.23-0.064-0.388-0.165c-0.156-0.101-0.45-0.342-0.376-0.47
				c0,0,0.229-0.175,0.331-0.266c0.101-0.092,0.359-0.313,0.515-0.285C4.854,2.751,5.277,2.935,5.433,2.99z M4.023,1.64
				c0.247,0,0.447,0.293,0.447,0.655c0,0.066-0.006,0.128-0.018,0.188C4.391,2.504,4.33,2.539,4.27,2.586
				C4.24,2.612,4.214,2.635,4.188,2.658c0.04-0.073,0.055-0.177,0.038-0.287C4.193,2.173,4.061,2.03,3.93,2.05
				C3.799,2.071,3.72,2.25,3.753,2.449c0.035,0.2,0.165,0.345,0.296,0.321c0.007,0,0.015-0.002,0.022-0.005
				C4.008,2.826,3.948,2.878,3.888,2.923c-0.18-0.084-0.312-0.332-0.312-0.628C3.577,1.933,3.776,1.64,4.023,1.64z M6.769,8.318
				C6.716,8.575,6.716,9.505,6.716,9.505s-0.565,0.782-1.442,0.91c-0.876,0.129-1.314,0.037-1.314,0.037L3.467,9.888
				c0,0,0.383-0.057,0.329-0.439C3.74,9.065,2.627,8.536,2.427,8.061C2.226,7.588,2.39,6.784,2.646,6.382s0.419-1.277,0.675-1.568
				c0.256-0.292,0.455-0.913,0.363-1.186c0,0,0.548,0.655,0.931,0.548c0.383-0.11,1.242-0.75,1.368-0.64
				c0.127,0.109,1.222,2.518,1.331,3.286c0.11,0.766-0.073,1.349-0.073,1.349S6.823,8.063,6.769,8.318z"/>
		</g>
	</g>
</g>
</svg>
