<?xml version="1.0" encoding="utf-8"?>
<!-- Generator: Adobe Illustrator 17.0.0, SVG Export Plug-In . SVG Version: 6.00 Build 0)  -->
<!DOCTYPE svg PUBLIC "-//W3C//DTD SVG 1.1//EN" "http://www.w3.org/Graphics/SVG/1.1/DTD/svg11.dtd">
<svg version="1.1" id="Layer_1" xmlns="http://www.w3.org/2000/svg" xmlns:xlink="http://www.w3.org/1999/xlink" x="0px" y="0px"
	 width="10px" height="12.327px" viewBox="0 0 10 12.327" enable-background="new 0 0 10 12.327" xml:space="preserve">
<path fill="#7F98FF" d="M9.15,10.786c-0.512,0.764-1.054,1.51-1.88,1.523c-0.826,0.018-1.091-0.487-2.028-0.487
	c-0.943,0-1.232,0.475-2.015,0.505c-0.808,0.031-1.418-0.813-1.935-1.559C0.238,9.245-0.57,6.44,0.515,4.556
	c0.536-0.938,1.498-1.529,2.539-1.548c0.789-0.013,1.541,0.536,2.028,0.536c0.481,0,1.393-0.659,2.348-0.56
	c0.401,0.018,1.522,0.16,2.244,1.221C9.618,4.24,8.336,4.992,8.349,6.552C8.367,8.413,9.982,9.035,10,9.042
	C9.982,9.085,9.741,9.929,9.15,10.786 M5.63,0.925C6.081,0.413,6.826,0.024,7.442,0c0.081,0.722-0.209,1.448-0.64,1.966
	C6.376,2.49,5.674,2.897,4.983,2.841C4.891,2.133,5.236,1.393,5.63,0.925z"/>
</svg>
