<?xml version="1.0" encoding="utf-8"?>
<!-- Generator: Adobe Illustrator 17.0.0, SVG Export Plug-In . SVG Version: 6.00 Build 0)  -->
<!DOCTYPE svg PUBLIC "-//W3C//DTD SVG 1.1//EN" "http://www.w3.org/Graphics/SVG/1.1/DTD/svg11.dtd">
<svg version="1.1" id="Layer_1" xmlns="http://www.w3.org/2000/svg" xmlns:xlink="http://www.w3.org/1999/xlink" x="0px" y="0px"
	 width="10px" height="10px" viewBox="0 0 10 10" enable-background="new 0 0 10 10" xml:space="preserve">
<path fill="#7F98FF" d="M7.778,7.777H2.222V2.223h5.556 M10,4.444V3.333H8.889v-1.11c0-0.617-0.5-1.111-1.111-1.111H6.666V0H5.556
	v1.111H4.444V0H3.333v1.111H2.222c-0.617,0-1.111,0.494-1.111,1.111v1.11H0v1.111h1.111v1.111H0v1.111h1.111v1.11
	c0,0.614,0.497,1.111,1.111,1.111h1.111V10h1.111V8.889h1.111V10h1.111V8.889h1.111c0.614,0,1.111-0.497,1.111-1.111v-1.11H10V5.556
	H8.889V4.444 M5.556,5.556H4.444V4.444h1.111 M6.666,3.333H3.333v3.334h3.333V3.333z"/>
</svg>
