<?xml version="1.0" encoding="utf-8"?>
<!-- Generator: Adobe Illustrator 17.0.0, SVG Export Plug-In . SVG Version: 6.00 Build 0)  -->
<!DOCTYPE svg PUBLIC "-//W3C//DTD SVG 1.1//EN" "http://www.w3.org/Graphics/SVG/1.1/DTD/svg11.dtd">
<svg version="1.1" id="Layer_1" xmlns="http://www.w3.org/2000/svg" xmlns:xlink="http://www.w3.org/1999/xlink" x="0px" y="0px"
	 width="10px" height="12.5px" viewBox="0 0 10 12.5" enable-background="new 0 0 10 12.5" xml:space="preserve">
<path fill="#7F98FF" d="M1.25,0h7.5C9.44,0,10,0.56,10,1.25v10c0,0.69-0.56,1.25-1.25,1.25h-7.5C0.56,12.5,0,11.94,0,11.25v-10
	C0,0.56,0.56,0,1.25,0 M5,1.25C2.929,1.25,1.25,2.929,1.25,5c0,2.069,1.681,3.75,3.812,3.75l-0.55-1.394
	C4.344,7.057,4.444,6.675,4.744,6.5l0.538-0.313c0.3-0.169,0.681-0.068,0.856,0.231l1.2,1.512C8.2,7.243,8.75,6.188,8.75,5
	C8.75,2.929,7.071,1.25,5,1.25 M5,4.375c0.346,0,0.625,0.279,0.625,0.625c0,0.346-0.279,0.625-0.625,0.625
	C4.655,5.625,4.375,5.346,4.375,5C4.375,4.654,4.655,4.375,5,4.375 M1.875,10C1.53,10,1.25,10.279,1.25,10.625
	c0,0.346,0.28,0.625,0.625,0.625c0.345,0,0.625-0.279,0.625-0.625C2.5,10.279,2.22,10,1.875,10 M5.056,7.044l1.556,3.943
	l1.619-0.938L5.594,6.731L5.056,7.044z"/>
</svg>
