<?xml version="1.0" encoding="utf-8"?>
<!-- Generator: Adobe Illustrator 17.0.0, SVG Export Plug-In . SVG Version: 6.00 Build 0)  -->
<!DOCTYPE svg PUBLIC "-//W3C//DTD SVG 1.1//EN" "http://www.w3.org/Graphics/SVG/1.1/DTD/svg11.dtd">
<svg version="1.1" id="Layer_1" xmlns="http://www.w3.org/2000/svg" xmlns:xlink="http://www.w3.org/1999/xlink" x="0px" y="0px"
	 width="10px" height="10px" viewBox="0 0 10 10" enable-background="new 0 0 10 10" xml:space="preserve">
<path fill="#F59372" d="M5,9C2.795,9,1,7.205,1,5c0-2.205,1.795-4,4-4c2.205,0,4,1.795,4,4C9,7.205,7.205,9,5,9 M5,0
	C2.235,0,0,2.235,0,5c0,2.765,2.235,5,5,5c2.765,0,5-2.235,5-5C10,2.235,7.765,0,5,0 M6.295,3L5,4.295L3.705,3L3,3.705L4.295,5
	L3,6.295L3.705,7L5,5.705L6.295,7L7,6.295L5.705,5L7,3.705L6.295,3z"/>
</svg>
