<?xml version="1.0" encoding="utf-8"?>
<!-- Generator: Adobe Illustrator 17.0.0, SVG Export Plug-In . SVG Version: 6.00 Build 0)  -->
<!DOCTYPE svg PUBLIC "-//W3C//DTD SVG 1.1//EN" "http://www.w3.org/Graphics/SVG/1.1/DTD/svg11.dtd">
<svg version="1.1" id="Layer_1" xmlns="http://www.w3.org/2000/svg" xmlns:xlink="http://www.w3.org/1999/xlink" x="0px" y="0px"
	 width="10.003px" height="10.003px" viewBox="0 0 10.003 10.003" enable-background="new 0 0 10.003 10.003" xml:space="preserve">
<path fill="#6ECEC4" d="M7.83,7.83c-1.559,1.56-4.098,1.561-5.657,0c-1.56-1.559-1.559-4.098,0.001-5.656
	c1.559-1.559,4.098-1.56,5.656,0C9.389,3.732,9.388,6.271,7.83,7.83 M1.466,1.466c-1.955,1.955-1.955,5.116-0.001,7.07
	c1.955,1.955,5.116,1.955,7.071,0c1.955-1.955,1.955-5.115,0-7.07C6.582-0.489,3.422-0.489,1.466,1.466 M4.503,4.503H2.672V5.5
	h1.831L5.5,5.501h1.832V4.503H5.5H4.503z"/>
</svg>
