<?xml version="1.0" encoding="utf-8"?>
<!-- Generator: Adobe Illustrator 17.0.0, SVG Export Plug-In . SVG Version: 6.00 Build 0)  -->
<!DOCTYPE svg PUBLIC "-//W3C//DTD SVG 1.1//EN" "http://www.w3.org/Graphics/SVG/1.1/DTD/svg11.dtd">
<svg version="1.1" id="Layer_1" xmlns="http://www.w3.org/2000/svg" xmlns:xlink="http://www.w3.org/1999/xlink" x="0px" y="0px"
	 width="9px" height="10px" viewBox="0 0 9 10" enable-background="new 0 0 9 10" xml:space="preserve">
<path fill="#7F98FF" d="M8,9H1V3.5h7 M8,1H7.5V0h-1v1h-4V0h-1v1H1C0.445,1,0,1.45,0,2v7c0,0.552,0.448,1,1,1h7c0.552,0,1-0.448,1-1
	V2C9,1.448,8.552,1,8,1 M3.155,8l1.22-1.22L5.595,8l0.53-0.53l-1.22-1.22l1.22-1.22L5.595,4.5l-1.22,1.22L3.155,4.5l-0.53,0.53
	l1.22,1.22l-1.22,1.22L3.155,8z"/>
</svg>
