<?xml version="1.0" encoding="utf-8"?>
<!-- Generator: Adobe Illustrator 17.0.0, SVG Export Plug-In . SVG Version: 6.00 Build 0)  -->
<!DOCTYPE svg PUBLIC "-//W3C//DTD SVG 1.1//EN" "http://www.w3.org/Graphics/SVG/1.1/DTD/svg11.dtd">
<svg version="1.1" id="Layer_1" xmlns="http://www.w3.org/2000/svg" xmlns:xlink="http://www.w3.org/1999/xlink" x="0px" y="0px"
	 width="10px" height="10px" viewBox="0 0 10 10" enable-background="new 0 0 10 10" xml:space="preserve">
<path fill="#ACE39B" d="M5,0c2.762,0,5,2.238,5,5c0,2.762-2.238,5-5,5c-2.762,0-5-2.238-5-5C0,2.238,2.238,0,5,0 M5,1
	C2.791,1,1,2.791,1,5c0,2.209,1.791,4,4,4c2.209,0,4-1.791,4-4C9,2.791,7.209,1,5,1 M4.5,7.25L2.25,5l0.705-0.705L4.5,5.835
	l2.795-2.79L8,3.75L4.5,7.25z"/>
</svg>
